<svg xmlns="http://www.w3.org/2000/svg" viewBox="0 0 112.2 111"><defs><style>.cls-1{fill:#292a2a;fill-rule:evenodd;}</style></defs><title>Fill ground</title><g id="レイヤー_2" data-name="レイヤー 2"><g id="レイヤー_1-2" data-name="レイヤー 1"><path class="cls-1" d="M86.6,73.2,81.69,89.41,79.2,87.8v2.8l2.25-.4L80,95l-1.26.91L77,92l-4.8-2.4,1,3.8L78,96.47,76.11,97.8l.29-1-2.6-2L75.86,98l-1.11.8L71.6,96.2l-.67,5.33-2.64,1.91-1.69-1,.43,1.95-2.44,1.76.81-2.71-3-5.4-2.2,5.8,3.38,3L62,108l-3-2.61-.4,2.6,1.54,1.32L57.8,111l-1.42-4,2.42-3.36L56,102.2l-.8,1.39-.78-2.22L55.6,99.6l-1.72.23-.53-1.5,3.45-.53,3-4-3.4-1.6-3.54,4.73L51.34,92.6H54.4L56.6,87l-4.4-2.2-1.82,5.08L39.6,59.2,27.4,68.4,43.6,85,32,105.6,20.2,61.4,32.2,37,11,36.6l6.4,22L0,67.8l6-35L40.8,16.4,19,15.4l4.8,7.8L11,15,31,3.8l29.4,11L51.4,30,63.6,45.8,67.8,24,57.6,27.6,84.6,0,86,5l5-.8,4.8,35,16.4,33.2Zm-27.2,23-1.6,3,.8,2.2L61,98.8Zm-1.8-6.8,1.6,1.8,1.6-3.4-1-2.6ZM60,80.2v1.6l2.4-2.4Zm1.4,12L61,95l2-1.4.2-3.4ZM65,84.8l-.2,2.6L66,86.2Zm.6,10,.4,5.6,2.4,1.4,1.4-4.6Zm3-15.2v2.8l.8-1.6ZM68.2,91l2,4,.4-2.8ZM73,86.6,74.8,88,77,86.2Z"/></g></g></svg>